HIERARCHY
ROOT hip
{
  OFFSET 0 0 0
  CHANNELS 6 Xposition Yposition Zposition Zrotation Yrotation Xrotation
  JOINT abdomen
  {
    OFFSET 0 20.6881 -0.73152
    CHANNELS 3 Zrotation Xrotation Yrotation
    JOINT chest
    {
      OFFSET 0 11.7043 -0.48768
      CHANNELS 3 Zrotation Xrotation Yrotation
      JOINT neck
      {
        OFFSET 0 22.1894 -2.19456
        CHANNELS 3 Zrotation Xrotation Yrotation
        JOINT head
        {
          OFFSET -0.24384 7.07133 1.2192
          CHANNELS 3 Zrotation Xrotation Yrotation
          JOINT leftEye
          {
            OFFSET 4.14528 8.04674 8.04672
            CHANNELS 3 Zrotation Xrotation Yrotation
            End Site
            {
              OFFSET 1 0 0
            }
          }
          JOINT rightEye
          {
            OFFSET -3.6576 8.04674 8.04672
            CHANNELS 3 Zrotation Xrotation Yrotation
            End Site
            {
              OFFSET 1 0 0
            }
          }
        }
      }
      JOINT rCollar
      {
        OFFSET -2.68224 19.2634 -4.8768
        CHANNELS 3 Zrotation Xrotation Yrotation
        JOINT rShldr
        {
          OFFSET -8.77824 -1.95073 1.46304
          CHANNELS 3 Zrotation Xrotation Yrotation
          JOINT rForeArm
          {
            OFFSET -28.1742 -1.7115 0.48768
            CHANNELS 3 Zrotation Xrotation Yrotation
            JOINT rHand
            {
              OFFSET -22.5879 0.773209 7.07136
              CHANNELS 3 Zrotation Xrotation Yrotation
              JOINT rThumb1
              {
                OFFSET -1.2192 -0.487915 3.41376
                CHANNELS 3 Zrotation Xrotation Yrotation
                JOINT rThumb2
                {
                  OFFSET -3.37035 -0.52449 3.41376
                  CHANNELS 3 Zrotation Xrotation Yrotation
                  End Site
                  {
                    OFFSET -1.78271 -1.18214 1.43049
                  }
                }
              }
              JOINT rIndex1
              {
                OFFSET -7.75947 0.938293 5.60832
                CHANNELS 3 Zrotation Xrotation Yrotation
                JOINT rIndex2
                {
                  OFFSET -2.54057 -0.884171 1.56538
                  CHANNELS 3 Zrotation Xrotation Yrotation
                  End Site
                  {
                    OFFSET -1.62519 -0.234802 1.16502
                  }
                }
              }
              JOINT rMid1
              {
                OFFSET -8.24714 1.18213 3.41376
                CHANNELS 3 Zrotation Xrotation Yrotation
                JOINT rMid2
                {
                  OFFSET -3.10165 -0.590103 1.0647
                  CHANNELS 3 Zrotation Xrotation Yrotation
                  End Site
                  {
                    OFFSET -2.48547 -0.328903 0.83742
                  }
                }
              }
              JOINT rRing1
              {
                OFFSET -8.82822 0.546677 1.51678
                CHANNELS 3 Zrotation Xrotation Yrotation
                JOINT rRing2
                {
                  OFFSET -2.60934 -0.819778 -0.0198488
                  CHANNELS 3 Zrotation Xrotation Yrotation
                  End Site
                  {
                    OFFSET -2.33842 -0.294052 0.168128
                  }
                }
              }
              JOINT rPinky1
              {
                OFFSET -8.27202 -0.0477905 -0.4584
                CHANNELS 3 Zrotation Xrotation Yrotation
                JOINT rPinky2
                {
                  OFFSET -1.82734 -0.647385 -0.700984
                  CHANNELS 3 Zrotation Xrotation Yrotation
                  End Site
                  {
                    OFFSET -1.69225 -0.51767 -0.607171
                  }
                }
              }
            }
          }
        }
      }
      JOINT lCollar
      {
        OFFSET 2.68224 19.2634 -4.8768
        CHANNELS 3 Zrotation Xrotation Yrotation
        JOINT lShldr
        {
          OFFSET 8.77824 -1.95073 1.46304
          CHANNELS 3 Zrotation Xrotation Yrotation
          JOINT lForeArm
          {
            OFFSET 28.1742 -1.7115 0.48768
            CHANNELS 3 Zrotation Xrotation Yrotation
            JOINT lHand
            {
              OFFSET 22.5879 0.773209 7.07136
              CHANNELS 3 Zrotation Xrotation Yrotation
              JOINT lThumb1
              {
                OFFSET 1.2192 -0.487915 3.41376
                CHANNELS 3 Zrotation Xrotation Yrotation
                JOINT lThumb2
                {
                  OFFSET 3.37035 -0.52449 3.41376
                  CHANNELS 3 Zrotation Xrotation Yrotation
                  End Site
                  {
                    OFFSET 1.78271 -1.18214 1.43049
                  }
                }
              }
              JOINT lIndex1
              {
                OFFSET 7.75947 0.938293 5.60832
                CHANNELS 3 Zrotation Xrotation Yrotation
                JOINT lIndex2
                {
                  OFFSET 2.54057 -0.884171 1.56538
                  CHANNELS 3 Zrotation Xrotation Yrotation
                  End Site
                  {
                    OFFSET 1.62519 -0.234802 1.16502
                  }
                }
              }
              JOINT lMid1
              {
                OFFSET 8.24714 1.18213 3.41376
                CHANNELS 3 Zrotation Xrotation Yrotation
                JOINT lMid2
                {
                  OFFSET 3.10165 -0.590103 1.0647
                  CHANNELS 3 Zrotation Xrotation Yrotation
                  End Site
                  {
                    OFFSET 2.48547 -0.328903 0.83742
                  }
                }
              }
              JOINT lRing1
              {
                OFFSET 8.82822 0.546677 1.51678
                CHANNELS 3 Zrotation Xrotation Yrotation
                JOINT lRing2
                {
                  OFFSET 2.60934 -0.819778 -0.0198488
                  CHANNELS 3 Zrotation Xrotation Yrotation
                  End Site
                  {
                    OFFSET 2.33842 -0.294052 0.168128
                  }
                }
              }
              JOINT lPinky1
              {
                OFFSET 8.27202 -0.0477905 -0.4584
                CHANNELS 3 Zrotation Xrotation Yrotation
                JOINT lPinky2
                {
                  OFFSET 1.82734 -0.647385 -0.700984
                  CHANNELS 3 Zrotation Xrotation Yrotation
                  End Site
                  {
                    OFFSET 1.69225 -0.51767 -0.607171
                  }
                }
              }
            }
          }
        }
      }
    }
  }
  JOINT rButtock
  {
    OFFSET -8.77824 4.35084 1.2192
    CHANNELS 3 Zrotation Xrotation Yrotation
    JOINT rThigh
    {
      OFFSET 0 -1.70687 -2.19456
      CHANNELS 3 Zrotation Xrotation Yrotation
      JOINT rShin
      {
        OFFSET 0 -36.8199 0.73152
        CHANNELS 3 Zrotation Xrotation Yrotation
        JOINT rFoot
        {
          OFFSET 0.73152 -45.1104 -5.12064
          CHANNELS 3 Zrotation Xrotation Yrotation
          End Site
          {
            OFFSET -1.1221 -3.69964 12.103
          }
        }
      }
    }
  }
  JOINT lButtock
  {
    OFFSET 8.77824 4.35084 1.2192
    CHANNELS 3 Zrotation Xrotation Yrotation
    JOINT lThigh
    {
      OFFSET 0 -1.70687 -2.19456
      CHANNELS 3 Zrotation Xrotation Yrotation
      JOINT lShin
      {
        OFFSET 0 -36.8199 0.73152
        CHANNELS 3 Zrotation Xrotation Yrotation
        JOINT lFoot
        {
          OFFSET -0.73152 -45.1104 -5.12064
          CHANNELS 3 Zrotation Xrotation Yrotation
          End Site
          {
            OFFSET 1.1221 -3.69964 12.103
          }
        }
      }
    }
  }
}
MOTION
Frames:	6
Frame Time:	0.00833333
147.399 80.7262 -51.8655 179.47 -18.6062 -156.022 -3.7604 -24.1851 -0.083931 2.9901 16.5109 -0.29852 -3.92011 15.4499 0.646236 10.1804 -7.27234 -0.37694 -0.0 0.0 0.0 -0.0 0.0 0.0 5.68353e-14 -2.28824e-16 -7.81402e-14 79.3113 12.66 2.60366 -17.3312 -9.98771 32.5303 -0.0414438 -5.80513 -0.818684 -4.93814e-10 5.87524e-10 -1.2383e-09 -8.47828e-10 1.00834e-09 -2.14699e-09 -4.93811e-10 5.87525e-10 -1.23832e-09 7.73091 5.47488 0.417314 -4.93801e-10 5.8752e-10 -1.2383e-09 2.90554 0.965183 0.102902 -4.93808e-10 5.87527e-10 -1.23831e-09 10.2786 0.731801 0.0259123 -4.93815e-10 5.87526e-10 -1.2383e-09 2.22167 -0.733487 -0.20892 5.65393e-14 -2.19947e-16 -7.84186e-14 -75.8449 7.83974 3.73596 9.25852 -3.70453 -16.4157 0.0794394 7.99262 -1.13081 -4.63341e-10 2.84145e-09 6.49327e-10 -7.95408e-10 4.91734e-09 1.12412e-09 -4.63339e-10 2.84145e-09 6.49338e-10 -7.73091 5.47488 -0.417314 -4.6334e-10 2.84146e-09 6.49322e-10 -2.90554 0.965183 -0.102902 -4.63345e-10 2.84145e-09 6.49322e-10 -10.2786 0.731801 -0.0259123 -4.63332e-10 2.84145e-09 6.49313e-10 -2.22167 -0.733487 0.20892 -2.03217e-16 0.0 -3.88251e-19 4.60173 -41.1487 5.38704 -0.0669995 16.7418 -0.13262 -1.38852 -8.76845 -5.55373 2.03217e-16 0.0 3.88251e-19 -1.78484 -44.1822 -3.53682 0.940028 56.7853 -1.13384 0.919273 -5.51235 3.1434
147.441 80.7892 -52.1562 179.426 -19.1578 -155.878 -3.84399 -24.0967 0.11505 2.98172 16.5471 -0.243056 -3.85935 15.653 0.640972 10.0653 -7.59756 -0.335989 -0.0 0.0 0.0 -0.0 0.0 0.0 -6.41471e-16 2.70295e-14 6.5102e-15 78.8584 12.6337 3.31555 -17.1622 -9.81347 32.1667 -0.0391618 -5.6392 -0.795132 -4.06006e-10 8.80044e-10 -9.03987e-10 -6.99084e-10 1.51773e-09 -1.567e-09 -4.06001e-10 8.80045e-10 -9.04003e-10 7.73091 5.47488 0.417314 -4.05996e-10 8.80042e-10 -9.03987e-10 2.90554 0.965183 0.102902 -4.05998e-10 8.80047e-10 -9.0399e-10 10.2786 0.731801 0.0259123 -4.06007e-10 8.80046e-10 -9.0398e-10 2.22167 -0.733487 -0.20892 -9.48911e-16 2.70384e-14 6.21202e-15 -75.9326 8.33604 3.58627 9.49458 -3.83984 -16.857 0.0645034 7.22778 -1.02128 -3.04197e-10 2.18654e-09 1.17595e-09 -5.18087e-10 3.78319e-09 2.03309e-09 -3.04195e-10 2.18654e-09 1.17596e-09 -7.73091 5.47488 -0.417314 -3.04196e-10 2.18654e-09 1.17594e-09 -2.90554 0.965183 -0.102902 -3.042e-10 2.18654e-09 1.17594e-09 -10.2786 0.731801 -0.0259123 -3.04188e-10 2.18654e-09 1.17593e-09 -2.22167 -0.733487 0.20892 -2.03217e-16 0.0 -3.88251e-19 4.51615 -40.9373 5.26928 -0.06386 16.5676 -0.103919 -1.48159 -8.89033 -5.96122 2.03217e-16 0.0 3.88251e-19 -2.10629 -44.4451 -3.67708 0.881046 55.6533 -1.08332 1.00438 -6.05313 3.38967
147.51 80.8418 -52.4085 179.479 -19.5941 -155.729 -3.9687 -24.084 0.392476 2.93659 16.542 -0.159655 -3.79045 15.8224 0.611243 10.0501 -7.82172 -0.358466 -0.0 0.0 0.0 -0.0 0.0 0.0 -9.32121e-14 1.28461e-13 1.48908e-13 78.5243 12.6099 3.88553 -17.0687 -9.71823 31.966 -0.0385349 -5.58583 -0.78757 -4.19349e-10 1.46947e-09 -2.22971e-10 -7.28042e-10 2.54372e-09 -3.86337e-10 -4.19342e-10 1.46947e-09 -2.22985e-10 7.73091 5.47488 0.417314 -4.1934e-10 1.46947e-09 -2.22971e-10 2.90554 0.965183 0.102902 -4.1934e-10 1.46948e-09 -2.22973e-10 10.2786 0.731801 0.0259123 -4.1935e-10 1.46948e-09 -2.22965e-10 2.22167 -0.733487 -0.20892 -9.34541e-14 1.28467e-13 1.48631e-13 -75.9093 8.95399 3.3209 9.6684 -3.94102 -17.1828 0.0508612 6.42855 -0.907357 -6.98827e-11 5.40861e-10 2.46608e-09 -1.08758e-10 9.32129e-10 4.26264e-09 -6.98857e-11 5.40864e-10 2.46609e-09 -7.73091 5.47488 -0.417314 -6.98814e-11 5.40863e-10 2.46608e-09 -2.90554 0.965183 -0.102902 -6.98862e-11 5.40862e-10 2.46608e-09 -10.2786 0.731801 -0.0259123 -6.98739e-11 5.40862e-10 2.46607e-09 -2.22167 -0.733487 0.20892 -2.03217e-16 0.0 -3.88251e-19 4.29464 -40.7991 4.83356 -0.0609275 16.3437 -0.0768697 -1.52606 -8.92517 -6.12664 2.03217e-16 0.0 3.88251e-19 -2.46744 -44.7995 -3.81265 0.824309 54.4968 -1.03801 1.13243 -6.66677 3.79281
147.564 80.8983 -52.6362 179.319 -19.9445 -155.452 -4.12283 -24.121 0.722334 2.86603 16.5076 -0.0574353 -3.69985 16.0178 0.568081 10.076 -8.06333 -0.407955 -0.0 0.0 0.0 -0.0 0.0 0.0 -2.1586e-13 2.85455e-13 3.43428e-13 78.2583 12.5938 4.37735 -17.0103 -9.65959 31.8393 -0.0390613 -5.62346 -0.792911 -4.97167e-10 2.33894e-09 7.45095e-10 -8.70878e-10 4.05673e-09 1.29173e-09 -4.97157e-10 2.33894e-09 7.45084e-10 7.73091 5.47488 0.417314 -4.97159e-10 2.33894e-09 7.45097e-10 2.90554 0.965183 0.102902 -4.97156e-10 2.33894e-09 7.45097e-10 10.2786 0.731801 0.0259123 -4.97168e-10 2.33894e-09 7.45103e-10 2.22167 -0.733487 -0.20892 -2.15986e-13 2.85454e-13 3.43199e-13 -75.8098 9.63876 2.99187 9.80153 -4.0204 -17.4315 0.0385819 5.64018 -0.795255 2.0704e-10 -1.87417e-09 4.35408e-09 3.76576e-10 -3.25232e-09 7.52632e-09 2.07029e-10 -1.87417e-09 4.35409e-09 -7.73091 5.47488 -0.417314 2.07041e-10 -1.87417e-09 4.35407e-09 -2.90554 0.965183 -0.102902 2.07036e-10 -1.87417e-09 4.35407e-09 -10.2786 0.731801 -0.0259123 2.07048e-10 -1.87417e-09 4.35407e-09 -2.22167 -0.733487 0.20892 -2.03217e-16 0.0 -3.88251e-19 3.97799 -40.6944 4.18831 -0.0580056 16.07 -0.0508889 -1.53725 -8.89496 -6.13707 2.03217e-16 0.0 3.88251e-19 -2.85759 -45.1857 -3.95346 0.767632 53.2734 -0.994945 1.30279 -7.31645 4.33256
147.599 80.9705 -52.8297 179.022 -20.3313 -155.052 -4.26184 -24.1781 1.0672 2.78314 16.4551 0.0499578 -3.60802 16.1831 0.527403 10.0812 -8.24805 -0.460908 -0.0 0.0 0.0 -0.0 0.0 0.0 -3.15226e-13 4.18992e-13 5.11807e-13 78.0319 12.6279 4.78883 -16.9886 -9.6384 31.7906 -0.0402869 -5.71478 -0.805867 -6.79677e-10 3.22804e-09 1.67029e-09 -1.19425e-09 5.60343e-09 2.89512e-09 -6.79664e-10 3.22803e-09 1.67028e-09 7.73091 5.47488 0.417314 -6.7967e-10 3.22803e-09 1.67029e-09 2.90554 0.965183 0.102902 -6.79663e-10 3.22803e-09 1.67029e-09 10.2786 0.731801 0.0259123 -6.79678e-10 3.22804e-09 1.6703e-09 2.22167 -0.733487 -0.20892 -3.15234e-13 4.18985e-13 5.11628e-13 -75.6861 10.3131 2.6614 9.91619 -4.09014 -17.645 0.0291909 4.92808 -0.694277 3.86321e-10 -4.17078e-09 6.11682e-09 6.92767e-10 -7.23188e-09 1.05743e-08 3.86304e-10 -4.17078e-09 6.11682e-09 -7.73091 5.47488 -0.417314 3.86322e-10 -4.17078e-09 6.11681e-09 -2.90554 0.965183 -0.102902 3.86316e-10 -4.17078e-09 6.11681e-09 -10.2786 0.731801 -0.0259123 3.86328e-10 -4.17078e-09 6.1168e-09 -2.22167 -0.733487 0.20892 -2.03217e-16 0.0 -3.88251e-19 3.67539 -40.5849 3.53474 -0.0549197 15.7838 -0.0253316 -1.54636 -8.87542 -6.13117 2.03217e-16 0.0 3.88251e-19 -3.21158 -45.5392 -4.06892 0.711586 51.9711 -0.954137 1.50376 -7.98855 4.94483
147.648 81.0567 -53.0387 178.982 -20.7894 -154.851 -4.34198 -24.226 1.38932 2.70089 16.3954 0.148909 -3.53578 16.2623 0.505214 10.0045 -8.30152 -0.493688 -0.0 0.0 0.0 -0.0 0.0 0.0 -3.3795e-13 4.50054e-13 5.7578e-13 77.8153 12.755 5.11804 -17.0047 -9.65527 31.8238 -0.0417601 -5.82248 -0.821153 -1.00709e-09 3.87637e-09 2.22268e-09 -1.76482e-09 6.73049e-09 3.8518e-09 -1.00708e-09 3.87636e-09 2.22267e-09 7.73091 5.47488 0.417314 -1.00709e-09 3.87636e-09 2.22268e-09 2.90554 0.965183 0.102902 -1.00708e-09 3.87636e-09 2.22269e-09 10.2786 0.731801 0.0259123 -1.00709e-09 3.87637e-09 2.22269e-09 2.22167 -0.733487 -0.20892 -3.37891e-13 4.50044e-13 5.75631e-13 -75.5944 10.8996 2.39233 10.0342 -4.16216 -17.8656 0.0233465 4.35769 -0.613629 3.27713e-10 -5.4612e-09 7.03116e-09 5.94666e-10 -9.46826e-09 1.21567e-08 3.27693e-10 -5.46119e-09 7.03116e-09 -7.73091 5.47488 -0.417314 3.27713e-10 -5.4612e-09 7.03115e-09 -2.90554 0.965183 -0.102902 3.27707e-10 -5.4612e-09 7.03115e-09 -10.2786 0.731801 -0.0259123 3.27719e-10 -5.46119e-09 7.03115e-09 -2.22167 -0.733487 0.20892 -2.03217e-16 0.0 -3.88251e-19 3.49565 -40.4367 3.07398 -0.0515536 15.5227 0.000463874 -1.58472 -8.9422 -6.24765 2.03217e-16 0.0 3.88251e-19 -3.4625 -45.7955 -4.1271 0.656768 50.5777 -0.915618 1.72031 -8.66985 5.56514
